<svg width="21" height="20" viewBox="0 0 21 20" fill="none" xmlns="http://www.w3.org/2000/svg">
<path d="M20.8915 10C20.0628 15.5215 14.7364 20 9.00105 20C3.26575 20 -0.719711 15.5215 0.109039 10C0.937789 4.47853 6.2642 0 11.9973 0C17.7304 0 21.7181 4.47641 20.8915 10ZM16.7632 7.67294C16.8512 7.69382 16.9435 7.69211 17.0306 7.66798C17.1178 7.64385 17.1969 7.59815 17.26 7.53544C17.349 7.44385 17.4097 7.33021 17.4353 7.20728C17.4609 7.08434 17.4505 6.95696 17.4051 6.83943C17.3611 6.70193 15.9938 3.06749 11.8039 3.06749C7.61394 3.06749 5.27279 5.98477 4.91447 6.47345C4.55615 6.96213 4.37589 7.28369 4.57374 7.46562C4.77158 7.64756 4.93865 7.73006 5.49042 7.47831C6.04218 7.22657 8.62956 6.20901 11.1136 6.24074C14.0109 6.28517 16.7632 7.67083 16.7632 7.67083V7.67294ZM10.8894 8.06008C10.3289 8.0759 9.79156 8.27868 9.3693 8.63371C8.94704 8.98875 8.6661 9.47397 8.57459 10.0063C8.52791 10.2478 8.53797 10.4962 8.60403 10.7335C8.67009 10.9707 8.79048 11.1907 8.95638 11.3773C9.12227 11.5639 9.32946 11.7125 9.56275 11.812C9.79605 11.9116 10.0495 11.9596 10.3046 11.9526C10.8654 11.9367 11.403 11.7336 11.8253 11.3782C12.2476 11.0227 12.5284 10.537 12.6194 10.0042C12.6662 9.76288 12.6561 9.51452 12.5901 9.2774C12.524 9.04027 12.4036 8.82039 12.2376 8.63392C12.0717 8.44745 11.8645 8.29912 11.6312 8.19981C11.3978 8.10051 11.1444 8.05277 10.8894 8.06008ZM3.41524 11.868C3.41524 11.868 3.49218 13.334 4.85731 14.8805C6.22244 16.4269 7.70408 16.6067 7.70408 16.6067C7.75346 16.6093 7.80288 16.6025 7.84951 16.5866C7.89614 16.5708 7.93906 16.5462 7.97582 16.5144C8.01258 16.4826 8.04245 16.444 8.06372 16.4011C8.08499 16.3581 8.09724 16.3115 8.09977 16.264C8.20014 15.6672 8.17398 15.0571 8.02287 14.4703C7.87175 13.8835 7.5988 13.3322 7.22045 12.8496C6.05317 11.2693 3.92304 11.4174 3.67024 11.4407C3.41744 11.4639 3.41524 11.8616 3.41524 11.8616V11.868ZM17.1677 11.8341C17.1844 11.7314 17.1799 11.6264 17.1545 11.5253C17.1105 11.4216 16.8841 11.4301 16.8841 11.4301C16.8841 11.4301 15.708 11.1699 13.4284 12.5682C12.765 12.9759 12.2129 13.5309 11.8185 14.1865C11.4241 14.8421 11.199 15.5792 11.162 16.3359C11.1721 16.3848 11.1927 16.431 11.2223 16.4718C11.252 16.5126 11.2902 16.547 11.3344 16.5729C11.3786 16.5987 11.428 16.6155 11.4793 16.622C11.5306 16.6286 11.5827 16.6248 11.6324 16.611C13.0418 16.1749 14.3291 15.4347 15.3958 14.4468C16.9852 12.9744 17.1677 11.8278 17.1677 11.8278V11.8341Z" fill="#FAA61A"/>
</svg>
