<?xml version="1.0" encoding="UTF-8"?>
<svg id="Layer_1" data-name="Layer 1" xmlns="http://www.w3.org/2000/svg" viewBox="0 0 512 512">
  <defs>
    <style>
      .cls-1 {
        fill: #ea580c;
      }

      .cls-2 {
        fill: #fefefd;
      }

      .cls-3 {
        fill: #fefefe;
      }
    </style>
  </defs>
  <path class="cls-1" d="M409.99,232c-6.25-9.06-11.54-15.83-22.78-18.7-15.47-3.96-21.45,5.79-32.7,5.79-10.21,0-17.43-7.91-31.92-6-17.05,2.25-18.93,17.71-30.44,24.56-11.08,6.59-22.31,3.46-32.17,15.83-8.52,10.69-4.56,16.52-5.95,28.05-.88,7.33-12.45,14.45-17.54,20.46-6.54,7.73-17.76,26.45-16.55,36.56,1.13,9.48,14.88.46,17.08,1.87,2.28,6.12,8.29,9.3,11.97,14.1,9.32,12.21.21,30.93,13.02,42.46-48.97,11.72-103.58,4.31-144.33-26.16-64.29-48.08-69.67-134.77-30.48-201.14,39.31-66.58,116.02-109.34,194.18-100.57,81.23,9.12,138.32,81.8,128.62,162.87ZM244.8,114.3c-37.46,3.06-78.57,25.89-102.77,54.23-3.74,4.38-13.35,15.8-10.53,21.48,1.63,2.56,4.1,2.14,6.75,1.77,8.56-1.22,26.01-10.03,35.98-13.04,49.38-14.91,98.94-13.53,147.28,4.25,11.49,4.23,40.29,22.82,31.96-4.96-13.91-46.37-63.53-67.42-108.68-63.73ZM227.78,195.28c-41.12,5.28-52.35,67.37-1.28,61.72,40.29-4.45,51.82-68.22,1.28-61.72ZM108.23,246.23c-4.23,4.37.36,23.16,2.06,28.99,6.51,22.42,24.92,48.5,46.34,58.66,12.61,5.98,20.39,6.78,22.27-9.49,3.62-31.21-12.19-61.92-41.21-74.57-5.59-2.44-25.13-8.06-29.45-3.59Z"/>
  <path class="cls-1" d="M328.76,222.27c7.37-.28,15.28,5.2,22.69,5.77,16.24,1.24,27.54-14.21,43.09.92,4.82,4.69,6.88,11.94,13.12,15.88,9.83,6.21,23.98,2.73,32.17,14.83,6.87,10.15,2.26,15.15,3.16,24.84,1.59,17.01,24.22,20.85,21.89,41.89-1.69,15.23-18.11,19.99-21.2,31.79-2.6,9.89,3.95,19.07-3.25,29.75-7.85,11.65-22.14,8.4-32.18,14.82-11.62,7.44-11.55,25.14-30.59,24.86-8.76-.13-16.35-6.42-23.19-6.66-11-.39-18.15,10.59-32.27,5.34-12.22-4.54-13.24-16.8-21.27-22.73-9.04-6.67-23.95-4-31.93-14.07-8.56-10.79-2.38-21.97-6.8-33.2-4-10.17-17.42-15.82-19.76-27.24-4.95-24.14,19.67-26.08,21.56-43.55.9-8.36-2.23-17.55,2.99-25.01,7.94-11.34,23.06-9.08,33.35-15.65,9.76-6.24,12.55-21.98,28.43-22.57ZM342.76,254.26c-31.74,3.99-59.17,33.22-60.8,65.2-3.79,74.41,96.1,105.29,133.85,40.85,31.59-53.94-12.44-113.67-73.05-106.05Z"/>
  <path class="cls-2" d="M244.8,114.3c45.15-3.69,94.77,17.36,108.68,63.73,8.33,27.78-20.46,9.18-31.96,4.96-48.35-17.78-97.9-19.16-147.28-4.25-9.97,3.01-27.43,11.82-35.98,13.04-2.66.38-5.12.79-6.75-1.77-2.82-5.68,6.79-17.1,10.53-21.48,24.2-28.33,65.31-51.16,102.77-54.23Z"/>
  <path class="cls-2" d="M108.23,246.23c4.32-4.47,23.86,1.16,29.45,3.59,29.03,12.65,44.83,43.36,41.21,74.57-1.89,16.27-9.66,15.47-22.27,9.49-21.42-10.16-39.82-36.24-46.34-58.66-1.69-5.83-6.29-24.62-2.06-28.99Z"/>
  <path class="cls-2" d="M227.78,195.28c50.55-6.49,39.01,57.27-1.28,61.72-51.07,5.65-39.85-56.44,1.28-61.72Z"/>
  <path class="cls-3" d="M342.76,254.26c60.61-7.62,104.64,52.11,73.05,106.05-37.74,64.45-137.63,33.57-133.85-40.85,1.63-31.98,29.05-61.21,60.8-65.2ZM389.74,287.21c-1.94.38-4.2,2.02-5.77,3.27l-40.61,40.45c-4.04.72-16.83-24.28-29.73-15.79-4.56,3-5.75,9.33-3.4,14.14,1,2.04,23.28,24.45,25.84,26.16,3.71,2.48,7.29,3.61,11.68,1.81l53.28-53.71c5.55-7.98-2.14-18.1-11.28-16.32Z"/>
  <path class="cls-1" d="M389.74,287.21c9.15-1.78,16.83,8.33,11.28,16.32l-53.28,53.71c-4.39,1.8-7.97.67-11.68-1.81-2.56-1.71-24.84-24.12-25.84-26.16-2.35-4.81-1.16-11.14,3.4-14.14,12.9-8.48,25.69,16.51,29.73,15.79l40.61-40.45c1.56-1.24,3.82-2.89,5.77-3.27Z"/>
</svg>